<svg
   width="128"
   height="128"
   viewBox="0 0 33.866666 33.866666"
   version="1.1"
   id="svg1"
   xml:space="preserve"
   inkscape:version="1.3.2 (091e20ef0f, 2023-11-25)"
   sodipodi:docname="stepwise_logo.svg"
   xmlns:inkscape="http://www.inkscape.org/namespaces/inkscape"
   xmlns:sodipodi="http://sodipodi.sourceforge.net/DTD/sodipodi-0.dtd"
   xmlns="http://www.w3.org/2000/svg"
   xmlns:svg="http://www.w3.org/2000/svg"><sodipodi:namedview
     id="namedview1"
     pagecolor="#ffffff"
     bordercolor="#000000"
     borderopacity="0.25"
     inkscape:showpageshadow="2"
     inkscape:pageopacity="0.0"
     inkscape:pagecheckerboard="false"
     inkscape:deskcolor="#d1d1d1"
     inkscape:document-units="px"
     inkscape:zoom="4"
     inkscape:cx="55.875"
     inkscape:cy="150.125"
     inkscape:window-width="1268"
     inkscape:window-height="1567"
     inkscape:window-x="0"
     inkscape:window-y="0"
     inkscape:window-maximized="1"
     inkscape:current-layer="layer2" /><defs
     id="defs1" /><g
     inkscape:groupmode="layer"
     id="layer2"
     inkscape:label="Layer 2"
     style="display:inline"><path
       id="path1"
       style="display:inline;fill:#000000;fill-opacity:1;stroke:none;stroke-width:0.0632499;stroke-dasharray:none;stroke-opacity:1"
       d="M 19.888988,6.1884066e-5 C 18.061531,0.65960875 17.859643,2.3111579 18.398394,3.6696978 c -0.417734,1.4427548 -1.255584,5.115506 0.631734,7.3552932 -2.356247,4.529693 -1.348625,8.4957 3.027418,10.92628 -4.556685,-0.177033 -5.123556,3.408213 -5.123556,3.408213 l -6.58e-4,8.50058 0.300224,0.0062 c 1.259965,-2.872554 4.481972,-1.844674 7.377798,-1.882738 1.423171,-0.01867 6.48776,-0.236728 7.12721,-2.691828 0.6397,-2.456008 2.128102,-8.138304 2.128102,-8.138304 l -1.802033,-1.05259 c -2.554659,3.109281 -10.310575,2.94275 -12.892361,-2.749635 0.786089,-3.066918 4.063119,-0.620616 4.819251,-0.213344 0.508287,1.80066 2.841092,1.902895 3.845811,1.446614 -0.09847,-1.101171 -1.538642,-2.681802 -3.407883,-2.190654 -0.850444,-0.895965 -2.252204,-1.385349 -2.252204,-1.385349 0.894972,-0.463193 2.171281,-0.90493 2.171281,-0.90493 0.907659,0.730526 1.499277,0.941095 2.627907,0.853085 1.040598,0.781073 2.528803,1.352845 4.003918,-0.156166 -0.984705,-1.904203 -3.133815,-1.518584 -4.093338,-0.754407 -0.536068,0.24823 -1.363088,-0.370447 -1.363088,-0.370447 l 2.260028,-1.69767 c 0,0 3.145524,0.410121 3.378638,-1.739457 -2.728345,-1.8259211 -4.34902,1.254624 -4.34902,1.254624 0,0 -2.098309,1.84488 -4.787628,2.372596 -0.261937,-3.304626 2.982194,-4.0903715 2.982194,-4.0903715 1.28981,0.017433 3.167752,0.2292705 3.482686,-2.2003914 -2.04352,-1.0188533 -3.62258,0.8109462 -3.797187,1.5245355 -2.643948,0.7224507 -3.760291,2.3409694 -3.607467,5.1332194 -1.52866,0.48962 -2.345708,1.325962 -2.345708,1.325962 C 18.327553,13.70647 20.191684,9.2681921 24.321671,7.5535225 26.668009,6.9624596 26.71992,5.5470303 26.733672,4.4739695 25.99156,4.418459 23.783261,4.3110854 23.44037,6.9540078 22.104984,7.3981069 20.500679,9.1437223 20.500679,9.1437223 20.253144,7.8044144 19.997971,6.8140418 22.407773,5.175583 c 1.571243,-0.8302154 2.234373,-2.5099359 0.965275,-3.9602726 -0.586835,-0.053743 -2.44918,1.192802 -1.73573,3.2407416 -1.09751,0.9534329 -3.055625,2.1868365 -2.111778,5.5036651 l -0.301927,0.038065 C 18.181757,7.9284469 18.816484,5.1395925 19.143036,3.8185698 21.184846,2.8424532 20.553535,0.5401769 19.889009,0 Z M 16.933313,33.860064 16.932654,25.360112 c 0,0 -0.566872,-3.585255 -5.123552,-3.408222 C 16.18514,19.521321 17.19277,15.555313 14.836516,11.025618 16.723833,8.785833 15.885983,5.1130819 15.46825,3.6703167 16.007001,2.3117769 15.805114,0.66023798 13.977658,6.8082465e-4 13.313139,0.54085771 12.681821,2.8431444 14.723638,3.8192506 c 0.326543,1.321033 0.930707,4.231898 -0.111149,6.3012214 L 14.341131,9.9601399 C 15.28497,6.6433012 13.326857,5.4098975 12.229347,4.4564646 12.942798,2.408525 11.08045,1.1620416 10.493616,1.215723 9.2245175,2.6660597 9.8876468,4.3457906 11.458894,5.1760058 c 2.4098,1.6384487 2.154626,2.6288211 1.907099,3.9681331 0,0 -1.604317,-1.7456052 -2.939697,-2.1897249 C 10.083402,4.3115125 7.8751061,4.4189268 7.1329928,4.4743722 c 0.013751,1.073071 0.065647,2.4885004 2.4120052,3.0795632 4.129983,1.7146593 5.994113,6.1529486 5.581202,8.0050806 0,0 -0.817046,-0.836332 -2.345699,-1.325953 C 12.933324,11.440804 11.816982,9.8222951 9.173031,9.0998342 8.9984288,8.3862449 7.4193608,6.5564557 5.3758402,7.5752987 c 0.3149353,2.4296613 2.1928762,2.217845 3.4826856,2.2004017 0,0 3.2441332,0.7857366 2.9821962,4.0903606 -2.6893207,-0.527706 -4.7876311,-2.372586 -4.7876311,-2.372586 0,0 -1.6206741,-3.0805442 -4.3490208,-1.254633 0.2331124,2.149578 3.3786435,1.739457 3.3786435,1.739457 l 2.2600222,1.69767 c 0,0 -0.8270227,0.618687 -1.3630857,0.370447 -0.9595226,-0.764166 -3.1086371,-1.149798 -4.0933368,0.754417 1.4751108,1.509012 2.9633181,0.937237 4.0039152,0.156155 1.1286322,0.08799 1.7202472,-0.122547 2.6279091,-0.853075 0,0 1.2763134,0.441727 2.1712814,0.90493 0,0 -1.401766,0.489374 -2.252203,1.385339 -1.869242,-0.491147 -3.3094131,1.089494 -3.407883,2.190654 1.0047142,0.456281 3.3375256,0.354056 3.8458111,-1.446614 0.7561369,-0.407272 4.0331589,-2.853571 4.8192489,0.213345 -2.581779,5.692384 -10.3377096,5.858907 -12.8923588,2.749645 L 0,21.153807 c 0,0 1.4883995,5.682298 2.1281002,8.138304 0.6394515,2.455088 5.7040424,2.673125 7.1272129,2.691827 2.8958239,0.03806 6.1178369,-0.989816 7.3777949,1.882728 l 0.300231,-0.0062 z M 31.34278,22.100514 c -0.157633,1.509775 -1.175064,4.866462 -1.175064,4.866462 -1.617451,2.626407 -7.029721,0.429018 -12.685975,1.68006 0.07013,-9.630747 8.025073,-2.973067 13.861039,-6.546522 z M 2.5238411,22.101123 C 8.3598129,25.674588 16.314738,19.016896 16.384882,28.647656 10.72863,27.396592 5.3163497,29.593991 3.6989027,26.967584 c 0,0 -1.0174289,-3.356687 -1.1750616,-4.866461 z m 26.4045549,1.788155 c -2.607076,0.912431 -7.636096,-0.24077 -8.699063,0.3846 l -0.172383,1.069874 c 4.141645,-0.7061 6.336915,0.129004 8.496413,-0.27179 z m -23.9901706,6.1e-4 0.3750277,1.182683 c 2.1595037,0.400783 4.3547684,-0.434301 8.4964179,0.271791 l -0.172385,-1.069874 c -1.062968,-0.625373 -6.0919818,0.527819 -8.6990606,-0.3846 z m 23.4849156,2.08949 c -2.83326,0.840633 -7.450276,-0.261105 -8.734757,0.377988 l -0.09078,0.948914 c 0.982278,-0.25903 5.964943,-0.241235 8.463782,-0.145477 z M 5.4434752,25.979976 5.805242,27.1614 c 2.4988379,-0.09572 7.481502,-0.113552 8.463777,0.145479 l -0.09077,-0.948905 C 12.893767,25.718883 8.2767437,26.82062 5.4434814,25.979976 Z m 15.3788318,3.074529 c 2.492209,-0.02166 5.856795,0.561593 8.149949,0.0072 -1.35635,1.138286 -2.925448,1.305652 -4.424507,1.253054 -2.425139,-0.08511 -5.127198,-0.927364 -7.043571,0.709165 -0.03093,-1.569005 1.379745,-1.952233 3.318129,-1.96914 z m -7.777987,6.09e-4 c 1.938373,0.01692 3.34903,0.400144 3.318119,1.96915 C 14.446067,29.387735 11.744013,30.229977 9.3188681,30.3151 7.8198095,30.367711 6.2507107,30.200321 4.8943646,29.062024 7.187516,29.616706 10.552102,29.033446 13.04432,29.05483 Z"
       inkscape:label="path1"
       sodipodi:nodetypes="cccccccsscccccccccccccccccccccccccccccccccccccccccccccccccccccccccccccccccccccssccccccccccccccccccccccccccccccccccccscscs" /></g></svg>
